<svg version="1.1" xmlns="http://www.w3.org/2000/svg" viewBox="0 0 3309.499726212152 2173.363139027255" width="3309.499726212152" height="2173.363139027255">
  <!-- svg-source:excalidraw -->
  
  <defs>
    <style class="style-fonts">
      @font-face {
        font-family: "Virgil";
        src: url("https://excalidraw.com/Virgil.woff2");
      }
      @font-face {
        font-family: "Cascadia";
        src: url("https://excalidraw.com/Cascadia.woff2");
      }
    </style>
  </defs>
  <rect x="0" y="0" width="3309.499726212152" height="2173.363139027255" fill="#ffffff"></rect><g transform="translate(219.06884242571778 444.6311255434557) rotate(0 452.92041015625 127.32879809450168)"><text x="0" y="0" font-family="Virgil, Segoe UI Emoji" font-size="50.93151923780067px" fill="#000000" text-anchor="start" style="white-space: pre;" direction="ltr" dominant-baseline="text-before-edge">Aplicacion:</text><text x="0" y="63.66439904725084" font-family="Virgil, Segoe UI Emoji" font-size="50.93151923780067px" fill="#000000" text-anchor="start" style="white-space: pre;" direction="ltr" dominant-baseline="text-before-edge">    Caso de uso:       </text><text x="0" y="127.32879809450168" font-family="Virgil, Segoe UI Emoji" font-size="50.93151923780067px" fill="#000000" text-anchor="start" style="white-space: pre;" direction="ltr" dominant-baseline="text-before-edge">        -&gt; process_algorithm_files: </text><text x="0" y="190.99319714175252" font-family="Virgil, Segoe UI Emoji" font-size="50.93151923780067px" fill="#000000" text-anchor="start" style="white-space: pre;" direction="ltr" dominant-baseline="text-before-edge">            </text></g><g transform="translate(103.31046775841241 283.05017230048406) rotate(0 159.86944580078125 50.38766796663907)"><text x="0" y="0" font-family="Virgil, Segoe UI Emoji" font-size="80.6202687466225px" fill="#000000" text-anchor="start" style="white-space: pre;" direction="ltr" dominant-baseline="text-before-edge">Backend</text></g><g stroke-linecap="round" transform="translate(10 198.69719751963976) rotate(0 1644.749863106076 980.570920582447)"><path d="M32 0 M32 0 C1289.64 3.51, 2546.4 2.95, 3257.5 0 M32 0 C1130.94 -6.02, 2229.94 -6.38, 3257.5 0 M3257.5 0 C3279.14 -1.6, 3287.83 9.59, 3289.5 32 M3257.5 0 C3279.85 0.47, 3288.13 12.55, 3289.5 32 M3289.5 32 C3293.85 546.01, 3293.33 1058.76, 3289.5 1929.14 M3289.5 32 C3291.21 695.85, 3290.99 1358.7, 3289.5 1929.14 M3289.5 1929.14 C3289.67 1951.52, 3277.65 1962.07, 3257.5 1961.14 M3289.5 1929.14 C3289.01 1949.9, 3277.23 1962.16, 3257.5 1961.14 M3257.5 1961.14 C2587.22 1957.62, 1916.27 1957.94, 32 1961.14 M3257.5 1961.14 C2278.39 1960.58, 1299.66 1960.61, 32 1961.14 M32 1961.14 C11.01 1960.9, 1.91 1949.22, 0 1929.14 M32 1961.14 C9.63 1963.14, -0.83 1948.61, 0 1929.14 M0 1929.14 C5.94 1215.02, 4.52 501.24, 0 32 M0 1929.14 C-0.93 1198.87, -0.5 468.43, 0 32 M0 32 C0.18 9.95, 12.1 -0.21, 32 0 M0 32 C0.46 9.1, 12.4 -1.06, 32 0" stroke="#000000" stroke-width="1" fill="none"></path></g><g transform="translate(552.9925718170198 667.3470397259898) rotate(0 511.83245849609375 26.048652848774097)"><text x="0" y="0" font-family="Virgil, Segoe UI Emoji" font-size="41.67784455803855px" fill="#2b8a3e" text-anchor="start" style="white-space: pre;" direction="ltr" dominant-baseline="text-before-edge">Statu_code = 200, List of dataframe.toString()</text></g><g transform="translate(565.2207118767847 746.6944840015631) rotate(0 397.7400207519531 26.048652848774093)"><text x="0" y="0" font-family="Virgil, Segoe UI Emoji" font-size="41.67784455803855px" fill="#c92a2a" text-anchor="start" style="white-space: pre;" direction="ltr" dominant-baseline="text-before-edge">Status_code = 406, Raise ValueError</text></g><g transform="translate(423.7164036481927 816.0606186922414) rotate(0 348.0046081542969 31.83219952362542)"><text x="0" y="0" font-family="Virgil, Segoe UI Emoji" font-size="50.93151923780067px" fill="#000000" text-anchor="start" style="white-space: pre;" direction="ltr" dominant-baseline="text-before-edge">-&gt; get_available_algotihms:</text></g><g transform="translate(568.0183181976054 913.0504571492245) rotate(0 400.927734375 52.097305697548194)"><text x="0" y="0" font-family="Virgil, Segoe UI Emoji" font-size="41.67784455803855px" fill="#2b8a3e" text-anchor="start" style="white-space: pre;" direction="ltr" dominant-baseline="text-before-edge">Status_code = 200, List = [string] </text><text x="0" y="52.09730569754819" font-family="Virgil, Segoe UI Emoji" font-size="41.67784455803855px" fill="#2b8a3e" text-anchor="start" style="white-space: pre;" direction="ltr" dominant-baseline="text-before-edge">                     (Puede ser vacia)</text></g><g transform="translate(578.0070063477406 1017.2822198301201) rotate(0 408.1575012207031 26.048652848774097)"><text x="0" y="0" font-family="Virgil, Segoe UI Emoji" font-size="41.67784455803855px" fill="#c92a2a" text-anchor="start" style="white-space: pre;" direction="ltr" dominant-baseline="text-before-edge">Status_code  = 404, Raise ValueError</text></g><g transform="translate(404.64051814006416 1091.300043770609) rotate(0 321.29180908203125 31.832199523625434)"><text x="0" y="0" font-family="Virgil, Segoe UI Emoji" font-size="50.93151923780067px" fill="#000000" text-anchor="start" style="white-space: pre;" direction="ltr" dominant-baseline="text-before-edge">-&gt; get_configuration_file:</text></g><g transform="translate(546.7029807798481 1188.289882227592) rotate(0 282.1474914550781 26.048652848774083)"><text x="0" y="0" font-family="Virgil, Segoe UI Emoji" font-size="41.67784455803855px" fill="#2b8a3e" text-anchor="start" style="white-space: pre;" direction="ltr" dominant-baseline="text-before-edge">Status_code  = 200, Dict</text></g><g transform="translate(558.931120839612 1267.6373265031652) rotate(0 408.1575012207031 26.048652848774083)"><text x="0" y="0" font-family="Virgil, Segoe UI Emoji" font-size="41.67784455803855px" fill="#c92a2a" text-anchor="start" style="white-space: pre;" direction="ltr" dominant-baseline="text-before-edge">Status_code  = 404, Raise ValueError</text></g><g transform="translate(416.54476530240663 1361.239321321725) rotate(0 309.2723388671875 31.832199523625434)"><text x="0" y="0" font-family="Virgil, Segoe UI Emoji" font-size="50.93151923780067px" fill="#000000" text-anchor="start" style="white-space: pre;" direction="ltr" dominant-baseline="text-before-edge">-&gt; get_algorithm_result:</text></g><g stroke-linecap="round" transform="translate(191.88081470414363 405.80895341768655) rotate(0 721.7754256501479 809.3585791866882)"><path d="M32 0 M32 0 C419.55 1.29, 807.65 0.5, 1411.55 0 M32 0 C371.35 -0.79, 711.06 -0.92, 1411.55 0 M1411.55 0 C1432.24 1.55, 1445.06 10.92, 1443.55 32 M1411.55 0 C1432.73 1.14, 1443.96 10.39, 1443.55 32 M1443.55 32 C1448.42 637.88, 1449.43 1243.14, 1443.55 1586.72 M1443.55 32 C1441.95 571.05, 1441.86 1109.98, 1443.55 1586.72 M1443.55 1586.72 C1443.03 1609.74, 1432.52 1620.44, 1411.55 1618.72 M1443.55 1586.72 C1444.04 1608.13, 1434.34 1618.68, 1411.55 1618.72 M1411.55 1618.72 C996.23 1624.07, 582.12 1624.7, 32 1618.72 M1411.55 1618.72 C1084.45 1623.17, 757.95 1623.23, 32 1618.72 M32 1618.72 C12.2 1620.7, 0.43 1606.47, 0 1586.72 M32 1618.72 C12.66 1620.67, 0.19 1606.24, 0 1586.72 M0 1586.72 C-2.92 1233.18, -3.8 880.08, 0 32 M0 1586.72 C-0.94 1136.46, -1.54 686.79, 0 32 M0 32 C-0.49 9.11, 10.18 -0.05, 32 0 M0 32 C1.87 8.88, 12.69 0.02, 32 0" stroke="#000000" stroke-width="1" fill="none"></path></g><g transform="translate(1764.5142430442413 449.7821664975381) rotate(0 93.40557861328125 31.832199523625434)"><text x="0" y="0" font-family="Virgil, Segoe UI Emoji" font-size="50.93151923780067px" fill="#000000" text-anchor="start" style="white-space: pre;" direction="ltr" dominant-baseline="text-before-edge">Dominio:</text></g><g stroke-linecap="round" transform="translate(1740.9092837039532 414.543199438353) rotate(0 721.7752889648506 385.1554110261762)"><path d="M32 0 M32 0 C416.08 -1.51, 801.02 -0.49, 1411.55 0 M32 0 C473.75 -4.31, 915.61 -4.2, 1411.55 0 M1411.55 0 C1434.39 0.25, 1443.41 11.66, 1443.55 32 M1411.55 0 C1433.29 -0.27, 1445.61 12.69, 1443.55 32 M1443.55 32 C1441.87 267.84, 1441.82 504.45, 1443.55 738.31 M1443.55 32 C1441.21 226.41, 1441.47 420.68, 1443.55 738.31 M1443.55 738.31 C1443.18 761.36, 1433.31 770.38, 1411.55 770.31 M1443.55 738.31 C1445 759.61, 1432.9 768.27, 1411.55 770.31 M1411.55 770.31 C867.17 772.02, 322.47 770.9, 32 770.31 M1411.55 770.31 C878.44 765.56, 345.02 766.22, 32 770.31 M32 770.31 C11.1 768.73, 1.73 761.35, 0 738.31 M32 770.31 C10.86 768.5, -1.67 760.94, 0 738.31 M0 738.31 C-2.35 503.25, -2.15 267.19, 0 32 M0 738.31 C-2.42 574.8, -2.23 410.55, 0 32 M0 32 C-0.49 10.61, 12.29 -1.56, 32 0 M0 32 C2.03 10.69, 12.48 1.24, 32 0" stroke="#000000" stroke-width="1" fill="none"></path></g><g transform="translate(1850.631082396076 530.9626454266299) rotate(0 159.258056640625 31.83219952362542)"><text x="0" y="0" font-family="Virgil, Segoe UI Emoji" font-size="50.93151923780068px" fill="#000000" text-anchor="start" style="white-space: pre;" direction="ltr" dominant-baseline="text-before-edge">-&gt; Algorithms</text></g><g transform="translate(1884.222861040502 868.6721027468311) rotate(0 197.02264404296875 31.83219952362542)"><text x="0" y="0" font-family="Virgil, Segoe UI Emoji" font-size="50.93151923780067px" fill="#000000" text-anchor="start" style="white-space: pre;" direction="ltr" dominant-baseline="text-before-edge">-&gt; Configuration</text></g><g transform="translate(1908.196197833633 612.9586224000504) rotate(0 335.4020690917969 27.993148870355043)"><text x="0" y="0" font-family="Virgil, Segoe UI Emoji" font-size="44.789038192568064px" fill="#000000" text-anchor="start" style="white-space: pre;" direction="ltr" dominant-baseline="text-before-edge">-&gt; files: algoritmos disponiblres</text></g><g transform="translate(1870.5730230330435 676.5589746223195) rotate(0 639.9956054687499 83.97944661106511)"><text x="0" y="0" font-family="Virgil, Segoe UI Emoji" font-size="44.789038192568064px" fill="#087f5b" text-anchor="start" style="white-space: pre;" direction="ltr" dominant-baseline="text-before-edge">    algorithm.py: Clase que se inicializa con el nombre del </text><text x="0" y="55.98629774071008" font-family="Virgil, Segoe UI Emoji" font-size="44.789038192568064px" fill="#087f5b" text-anchor="start" style="white-space: pre;" direction="ltr" dominant-baseline="text-before-edge">                algoritmo y con un metodo para iniciarlo </text><text x="0" y="111.97259548142016" font-family="Virgil, Segoe UI Emoji" font-size="44.789038192568064px" fill="#087f5b" text-anchor="start" style="white-space: pre;" direction="ltr" dominant-baseline="text-before-edge">                pasandole los archivos</text></g><g transform="translate(1889.743887737077 950.891696866501) rotate(0 166.2904815673828 27.993148870355043)"><text x="0" y="0" font-family="Virgil, Segoe UI Emoji" font-size="44.78903819256806px" fill="#087f5b" text-anchor="start" style="white-space: pre;" direction="ltr" dominant-baseline="text-before-edge">    drivers.json</text></g><g transform="translate(1986.129233636939 1031.2882117815768) rotate(0 504.2226562500001 27.993148870355043)"><text x="0" y="0" font-family="Virgil, Segoe UI Emoji" font-size="44.78903819256806px" fill="#d9480f" text-anchor="start" style="white-space: pre;" direction="ltr" dominant-baseline="text-before-edge">// Ficheros de configuración de los algoritmos</text></g><g transform="translate(446.5444920612754 1658.4452122616192) rotate(0 378.0023498535156 31.832199523625434)"><text x="0" y="0" font-family="Virgil, Segoe UI Emoji" font-size="50.93151923780066px" fill="#000000" text-anchor="start" style="white-space: pre;" direction="ltr" dominant-baseline="text-before-edge">-&gt; get_algoritgm_ description:</text></g><g transform="translate(567.3410803353163 1752.8867509692789) rotate(0 469.2457275390625 26.04865284877411)"><text x="0" y="0" font-family="Virgil, Segoe UI Emoji" font-size="41.67784455803855px" fill="#2b8a3e" text-anchor="start" style="white-space: pre;" direction="ltr" dominant-baseline="text-before-edge">Status_code  = 200, [description, aditional]</text></g><g transform="translate(562.1589380667801 1835.509150951174) rotate(0 408.1575012207031 26.048652848774054)"><text x="0" y="0" font-family="Virgil, Segoe UI Emoji" font-size="41.67784455803855px" fill="#c92a2a" text-anchor="start" style="white-space: pre;" direction="ltr" dominant-baseline="text-before-edge">Status_code  = 404, Raise ValueError</text></g><g stroke-linecap="round" transform="translate(1734.8658522811463 1255.858456002831) rotate(0 721.7752889648506 385.15541102617624)"><path d="M32 0 M32 0 C405.95 2.39, 778.77 1.73, 1411.55 0 M32 0 C514.84 1.01, 997.1 0.36, 1411.55 0 M1411.55 0 C1433.05 1.04, 1442.37 11.6, 1443.55 32 M1411.55 0 C1432.4 -0.58, 1441.95 11.69, 1443.55 32 M1443.55 32 C1445.94 178.78, 1445.96 326.02, 1443.55 738.31 M1443.55 32 C1445.34 246.05, 1445.71 460.48, 1443.55 738.31 M1443.55 738.31 C1443.89 759.4, 1434.79 769.05, 1411.55 770.31 M1443.55 738.31 C1442.52 761.64, 1432.06 768.44, 1411.55 770.31 M1411.55 770.31 C892.92 774.7, 372.08 775.22, 32 770.31 M1411.55 770.31 C880.06 766.18, 349.28 766.25, 32 770.31 M32 770.31 C10.85 769.6, 1.44 759.43, 0 738.31 M32 770.31 C11.13 768.74, 1.74 758.58, 0 738.31 M0 738.31 C-2.14 577.56, -1.54 417.85, 0 32 M0 738.31 C-2.18 581.56, -2.23 424.67, 0 32 M0 32 C0.69 12.43, 10.43 0.05, 32 0 M0 32 C-0.21 12.26, 10.95 -1.44, 32 0" stroke="#000000" stroke-width="1" fill="none"></path></g><g transform="translate(1790.3466829301815 1300.070202073606) rotate(0 184.09051513671875 27.993148870355014)"><text x="0" y="0" font-family="Virgil, Segoe UI Emoji" font-size="44.78903819256806px" fill="#000000" text-anchor="start" style="white-space: pre;" direction="ltr" dominant-baseline="text-before-edge">Infraestructura:</text></g><g transform="translate(1861.5439532534497 1376.583529250386) rotate(0 70.38524627685547 31.832199523625434)"><text x="0" y="0" font-family="Virgil, Segoe UI Emoji" font-size="50.93151923780067px" fill="#000000" text-anchor="start" style="white-space: pre;" direction="ltr" dominant-baseline="text-before-edge">-&gt; Api</text></g><g transform="translate(1852.297927171473 1789.8921531928643) rotate(0 545.4601440429688 31.832199523625377)"><text x="0" y="0" font-family="Virgil, Segoe UI Emoji" font-size="50.93151923780067px" fill="#000000" text-anchor="start" style="white-space: pre;" direction="ltr" dominant-baseline="text-before-edge">-&gt; Storage/results -&gt; Save last 3 results.</text></g><g transform="translate(1919.1377912925357 1455.8976715925567) rotate(0 623.0010375976564 159.1609976181271)"><text x="0" y="0" font-family="Virgil, Segoe UI Emoji" font-size="50.93151923780067px" fill="#000000" text-anchor="start" style="white-space: pre;" direction="ltr" dominant-baseline="text-before-edge">-&gt; controllers</text><text x="0" y="63.66439904725084" font-family="Virgil, Segoe UI Emoji" font-size="50.93151923780067px" fill="#000000" text-anchor="start" style="white-space: pre;" direction="ltr" dominant-baseline="text-before-edge">       endpoints que en su mayoría se correspon-</text><text x="0" y="127.32879809450168" font-family="Virgil, Segoe UI Emoji" font-size="50.93151923780067px" fill="#000000" text-anchor="start" style="white-space: pre;" direction="ltr" dominant-baseline="text-before-edge">        den a los casos de uso</text><text x="0" y="190.99319714175252" font-family="Virgil, Segoe UI Emoji" font-size="50.93151923780067px" fill="#000000" text-anchor="start" style="white-space: pre;" direction="ltr" dominant-baseline="text-before-edge">-&gt; server.py</text><text x="0" y="254.65759618900336" font-family="Virgil, Segoe UI Emoji" font-size="50.93151923780067px" fill="#000000" text-anchor="start" style="white-space: pre;" direction="ltr" dominant-baseline="text-before-edge"></text></g><g transform="translate(1030.9970286241569 10) rotate(0 634.5791015625 68.72929714225938)"><text x="0" y="0" font-family="Virgil, Segoe UI Emoji" font-size="109.96687542761504px" fill="#000000" text-anchor="start" style="white-space: pre;" direction="ltr" dominant-baseline="text-before-edge">Arquitectura Hexagonal</text></g><g transform="translate(537.4264998026101 1473.9683487698394) rotate(0 282.1474914550781 26.04865284877411)"><text x="0" y="0" font-family="Virgil, Segoe UI Emoji" font-size="41.67784455803855px" fill="#2b8a3e" text-anchor="start" style="white-space: pre;" direction="ltr" dominant-baseline="text-before-edge">Status_code  = 200, Dict</text></g><g transform="translate(549.6546398623741 1553.3157930454126) rotate(0 398.3442687988281 26.04865284877411)"><text x="0" y="0" font-family="Virgil, Segoe UI Emoji" font-size="41.67784455803855px" fill="#c92a2a" text-anchor="start" style="white-space: pre;" direction="ltr" dominant-baseline="text-before-edge">Status_code  = 500, Raise Exception</text></g><g transform="translate(423.63042495872196 2058.363139027255) rotate(0 1003.5897827148438 52.5)"><text x="0" y="0" font-family="Virgil, Segoe UI Emoji" font-size="28px" fill="#000000" text-anchor="start" style="white-space: pre;" direction="ltr" dominant-baseline="text-before-edge">En el caso de la capa de aplicación, los casos de usos devolverán los items establecidos anteriormente pero no sabrán nada de tecnología </text><text x="0" y="35" font-family="Virgil, Segoe UI Emoji" font-size="28px" fill="#000000" text-anchor="start" style="white-space: pre;" direction="ltr" dominant-baseline="text-before-edge">HTTP. Serán los controllers de la api los que interpretarán los resultados de los casos de uso y devolverán la payload con su STATUS CODE.</text><text x="0" y="70" font-family="Virgil, Segoe UI Emoji" font-size="28px" fill="#000000" text-anchor="start" style="white-space: pre;" direction="ltr" dominant-baseline="text-before-edge"></text></g><g transform="translate(50.27882824086191 2079.087791905465) rotate(0 173.29193115234375 17.5)"><text x="0" y="0" font-family="Virgil, Segoe UI Emoji" font-size="28px" fill="#c92a2a" text-anchor="start" style="white-space: pre;" direction="ltr" dominant-baseline="text-before-edge">Matizando casos de uso:</text></g></svg>