<svg version="1.1" xmlns="http://www.w3.org/2000/svg" viewBox="0 0 2982.934431839958 1314.7686564208354" width="2982.934431839958" height="1314.7686564208354">
  <!-- svg-source:excalidraw -->
  
  <defs>
    <style class="style-fonts">
      @font-face {
        font-family: "Virgil";
        src: url("https://excalidraw.com/Virgil.woff2");
      }
      @font-face {
        font-family: "Cascadia";
        src: url("https://excalidraw.com/Cascadia.woff2");
      }
    </style>
  </defs>
  <rect x="0" y="0" width="2982.934431839958" height="1314.7686564208354" fill="#ffffff"></rect><g stroke-linecap="round" transform="translate(10 10) rotate(0 1481.467215919979 324.5167928578618)"><path d="M32 0 M32 0 C1122.6 -1.8, 2215.14 -2.42, 2930.93 0 M32 0 C673.01 -6.25, 1313.79 -6.69, 2930.93 0 M2930.93 0 C2953.7 -0.21, 2963.34 9.3, 2962.93 32 M2930.93 0 C2954 -1.06, 2961.26 11.9, 2962.93 32 M2962.93 32 C2961.09 193.92, 2960.49 355.25, 2962.93 617.03 M2962.93 32 C2965.05 208.29, 2964.92 384.34, 2962.93 617.03 M2962.93 617.03 C2962.7 638.42, 2952.09 650.42, 2930.93 649.03 M2962.93 617.03 C2963.21 636.93, 2951.57 647, 2930.93 649.03 M2930.93 649.03 C2137.98 645.47, 1344.23 645.34, 32 649.03 M2930.93 649.03 C2054.17 638.69, 1178.03 638.75, 32 649.03 M32 649.03 C10.08 647.43, 0.74 637.55, 0 617.03 M32 649.03 C11.06 647.09, -1.11 638.49, 0 617.03 M0 617.03 C0.23 468.25, -0.08 318.11, 0 32 M0 617.03 C1.21 483.08, 1.38 349.11, 0 32 M0 32 C-1.28 9.64, 11.87 1.63, 32 0 M0 32 C0.24 8.59, 11.66 -0.75, 32 0" stroke="#000000" stroke-width="1" fill="none"></path></g><g transform="translate(44.646389322127106 58.51673440583272) rotate(0 297.4139099121094 22.5)"><text x="0" y="0" font-family="Virgil, Segoe UI Emoji" font-size="36px" fill="#000000" text-anchor="start" style="white-space: pre;" direction="ltr" dominant-baseline="text-before-edge">Flujo de conexión con el Frontend:</text></g><g transform="translate(1057.6344562673066 175.11386215162338) rotate(0 166.37387084960938 11.700829690417862)"><text x="0" y="0" font-family="Virgil, Segoe UI Emoji" font-size="18.72132750466858px" fill="#c92a2a" text-anchor="start" style="white-space: pre;" direction="ltr" dominant-baseline="text-before-edge">Tercera petición: Procesar archivos.</text></g><g transform="translate(911.1311797174694 221.07569051748033) rotate(0 313.10101318359375 81.90580783292503)"><text x="0" y="0" font-family="Virgil, Segoe UI Emoji" font-size="18.72132750466858px" fill="#000000" text-anchor="start" style="white-space: pre;" direction="ltr" dominant-baseline="text-before-edge">La idea es que le pasaremos archivos de la siguiente forma:</text><text x="0" y="23.401659380835724" font-family="Virgil, Segoe UI Emoji" font-size="18.72132750466858px" fill="#000000" text-anchor="start" style="white-space: pre;" direction="ltr" dominant-baseline="text-before-edge"></text><text x="0" y="46.80331876167145" font-family="Virgil, Segoe UI Emoji" font-size="18.72132750466858px" fill="#000000" text-anchor="start" style="white-space: pre;" direction="ltr" dominant-baseline="text-before-edge"> body {</text><text x="0" y="70.20497814250717" font-family="Virgil, Segoe UI Emoji" font-size="18.72132750466858px" fill="#000000" text-anchor="start" style="white-space: pre;" direction="ltr" dominant-baseline="text-before-edge">        "file_1" : { "filename" : "name", "file_content" : "content"},</text><text x="0" y="93.6066375233429" font-family="Virgil, Segoe UI Emoji" font-size="18.72132750466858px" fill="#000000" text-anchor="start" style="white-space: pre;" direction="ltr" dominant-baseline="text-before-edge">        ...</text><text x="0" y="117.00829690417862" font-family="Virgil, Segoe UI Emoji" font-size="18.72132750466858px" fill="#000000" text-anchor="start" style="white-space: pre;" direction="ltr" dominant-baseline="text-before-edge">        "file_{i} :   { "filename" : "name", "file_content" : "content"}</text><text x="0" y="140.40995628501435" font-family="Virgil, Segoe UI Emoji" font-size="18.72132750466858px" fill="#000000" text-anchor="start" style="white-space: pre;" direction="ltr" dominant-baseline="text-before-edge">      }</text></g><g transform="translate(918.3126862920462 417.8496774616174) rotate(0 363.4578857421875 35.102489071253586)"><text x="0" y="0" font-family="Virgil, Segoe UI Emoji" font-size="18.72132750466858px" fill="#000000" text-anchor="start" style="white-space: pre;" direction="ltr" dominant-baseline="text-before-edge">Al llegar al backend se hara un sort para procesar los archivos en orden</text><text x="0" y="23.401659380835724" font-family="Virgil, Segoe UI Emoji" font-size="18.72132750466858px" fill="#000000" text-anchor="start" style="white-space: pre;" direction="ltr" dominant-baseline="text-before-edge">y se devolverán de la misma manera. Al llegar al front tendrá que hacerse el </text><text x="0" y="46.80331876167145" font-family="Virgil, Segoe UI Emoji" font-size="18.72132750466858px" fill="#000000" text-anchor="start" style="white-space: pre;" direction="ltr" dominant-baseline="text-before-edge">mismo sort por el nombre para que luego no hallan problemas.</text></g><g stroke-linecap="round" transform="translate(895.6011508609736 153.65900750008313) rotate(0 371.2853117257028 185.2835983411183)"><path d="M32 0 M32 0 C292.71 2.59, 554.84 2.73, 710.57 0 M32 0 C241.63 -1.87, 451.08 -1.65, 710.57 0 M710.57 0 C730.98 -1.45, 743.65 10.18, 742.57 32 M710.57 0 C730.11 -0.56, 742.51 12.53, 742.57 32 M742.57 32 C745.67 100.91, 745.48 169.35, 742.57 338.57 M742.57 32 C744.54 134.49, 745.03 237.2, 742.57 338.57 M742.57 338.57 C741.32 359.29, 730.14 370.04, 710.57 370.57 M742.57 338.57 C742.72 359.22, 731.98 370.24, 710.57 370.57 M710.57 370.57 C570.46 369.91, 429.1 370.95, 32 370.57 M710.57 370.57 C500.8 369.92, 291.5 369.85, 32 370.57 M32 370.57 C8.98 369.61, 0.11 359, 0 338.57 M32 370.57 C10.07 371.9, -1.09 361.11, 0 338.57 M0 338.57 C0.77 273.4, 2.12 208.06, 0 32 M0 338.57 C-1.91 218.89, -0.95 98.43, 0 32 M0 32 C-1.8 11.53, 10.02 -0.61, 32 0 M0 32 C-1.45 10.65, 8.47 -0.34, 32 0" stroke="#000000" stroke-width="1" fill="none"></path></g><g transform="translate(186.48315934040693 185.1052822311035) rotate(0 233.1297607421875 12.5)"><text x="0" y="0" font-family="Virgil, Segoe UI Emoji" font-size="20px" fill="#c92a2a" text-anchor="start" style="white-space: pre;" direction="ltr" dominant-baseline="text-before-edge">Primera petición: Obtener algoritmos disponibles.</text></g><g stroke-linecap="round" transform="translate(59.41513859567385 154.51301935406855) rotate(0 396.644214074151 84.39241399433187)"><path d="M32 0 M32 0 C193.5 -1.06, 354.52 -1.93, 761.29 0 M32 0 C302.85 -0.28, 574.07 -0.88, 761.29 0 M761.29 0 C783.7 -0.49, 791.73 10.18, 793.29 32 M761.29 0 C782.56 1.87, 791.5 12.69, 793.29 32 M793.29 32 C795.43 65.02, 794.81 96.81, 793.29 136.78 M793.29 32 C794.01 62.31, 792.69 92.07, 793.29 136.78 M793.29 136.78 C791.52 157.59, 782.75 168.19, 761.29 168.78 M793.29 136.78 C793.36 157.79, 780.48 168.1, 761.29 168.78 M761.29 168.78 C540.2 166.46, 320.37 166.59, 32 168.78 M761.29 168.78 C563.56 169.93, 365.83 169.67, 32 168.78 M32 168.78 C10.78 167.89, -0.52 159.28, 0 136.78 M32 168.78 C9.57 170, -1.98 156.67, 0 136.78 M0 136.78 C1.46 113.51, 2.29 90.14, 0 32 M0 136.78 C1.35 112.18, -0.37 87.8, 0 32 M0 32 C-0.65 10.06, 9.4 -0.01, 32 0 M0 32 C-2.19 10.33, 11.09 1.52, 32 0" stroke="#000000" stroke-width="1" fill="none"></path></g><g transform="translate(101.21853507025298 232.63311535554294) rotate(0 360.2397155761719 37.5)"><text x="0" y="0" font-family="Virgil, Segoe UI Emoji" font-size="20px" fill="#000000" text-anchor="start" style="white-space: pre;" direction="ltr" dominant-baseline="text-before-edge">Se hará un request a la ruta correspondiente y se obtendrá un listado </text><text x="0" y="25" font-family="Virgil, Segoe UI Emoji" font-size="20px" fill="#000000" text-anchor="start" style="white-space: pre;" direction="ltr" dominant-baseline="text-before-edge">con los algoritmos disponibles en el backend, en caso de estar vacia se </text><text x="0" y="50" font-family="Virgil, Segoe UI Emoji" font-size="20px" fill="#000000" text-anchor="start" style="white-space: pre;" direction="ltr" dominant-baseline="text-before-edge">retorna un 404.</text></g><g transform="translate(143.1225201920388 380.88434579373416) rotate(0 312.7997131347656 12.5)"><text x="0" y="0" font-family="Virgil, Segoe UI Emoji" font-size="20px" fill="#c92a2a" text-anchor="start" style="white-space: pre;" direction="ltr" dominant-baseline="text-before-edge">Segunda petición: Obtener descripción de algoritmo seleccionado.</text></g><g stroke-linecap="round" transform="translate(59.01794213513767 351.82646649855815) rotate(0 396.644214074151 84.39241399433187)"><path d="M32 0 M32 0 C275.02 0.31, 518.53 -0.1, 761.29 0 M32 0 C200.76 1.56, 370 1.04, 761.29 0 M761.29 0 C782.14 -0.05, 794.91 9.11, 793.29 32 M761.29 0 C784.65 0.02, 795.11 11.9, 793.29 32 M793.29 32 C795.84 70.1, 794.13 108.5, 793.29 136.78 M793.29 32 C793.11 69.8, 793.15 109.43, 793.29 136.78 M793.29 136.78 C792.69 158.18, 782.34 166.92, 761.29 168.78 M793.29 136.78 C792.61 158.17, 783.56 166.7, 761.29 168.78 M761.29 168.78 C596.92 168.8, 431.02 169.33, 32 168.78 M761.29 168.78 C572.19 166.35, 383.3 166.22, 32 168.78 M32 168.78 C11.82 167.83, 1.06 156.39, 0 136.78 M32 168.78 C9.22 167.16, -0.99 158.69, 0 136.78 M0 136.78 C1 98.8, -1.41 64.59, 0 32 M0 136.78 C0.32 96.47, -0.42 56.16, 0 32 M0 32 C-0.01 8.76, 10.37 0.37, 32 0 M0 32 C1.52 9.35, 8.58 -1.95, 32 0" stroke="#000000" stroke-width="1" fill="none"></path></g><g transform="translate(97.89655536945975 415.3226462987477) rotate(0 370.8396911621094 37.5)"><text x="0" y="0" font-family="Virgil, Segoe UI Emoji" font-size="20px" fill="#000000" text-anchor="start" style="white-space: pre;" direction="ltr" dominant-baseline="text-before-edge">Se hará un request a la ruta correspondiente y se obtendrá la descripción</text><text x="0" y="25" font-family="Virgil, Segoe UI Emoji" font-size="20px" fill="#000000" text-anchor="start" style="white-space: pre;" direction="ltr" dominant-baseline="text-before-edge">y la descripcion adicional aunque este vacia, en caso de exito = 200, </text><text x="0" y="50" font-family="Virgil, Segoe UI Emoji" font-size="20px" fill="#000000" text-anchor="start" style="white-space: pre;" direction="ltr" dominant-baseline="text-before-edge">fallo = 404 ya que hay un fallo del fichero de configuracion.</text></g><g transform="translate(753.5626496707209 153.58193132719498) rotate(0 41.8504638671875 38.10365640377248)"><text x="0" y="0" font-family="Virgil, Segoe UI Emoji" font-size="60.96585024603598px" fill="#000000" text-anchor="start" style="white-space: pre;" direction="ltr" dominant-baseline="text-before-edge">✅</text></g><g transform="translate(771.2996880471687 330.1394793341069) rotate(0 41.8504638671875 38.10365640377248)"><text x="0" y="0" font-family="Virgil, Segoe UI Emoji" font-size="60.96585024603598px" fill="#000000" text-anchor="start" style="white-space: pre;" direction="ltr" dominant-baseline="text-before-edge">✅</text></g><g transform="translate(1551.9187017535646 141.09413248020746) rotate(0 41.8504638671875 38.10365640377248)"><text x="0" y="0" font-family="Virgil, Segoe UI Emoji" font-size="60.96585024603598px" fill="#000000" text-anchor="start" style="white-space: pre;" direction="ltr" dominant-baseline="text-before-edge">✅</text></g><g transform="translate(1702.9657592776525 174.23304670152584) rotate(0 235.5529327392578 12.073446092964495)"><text x="0" y="0" font-family="Virgil, Segoe UI Emoji" font-size="19.317513748743192px" fill="#c92a2a" text-anchor="start" style="white-space: pre;" direction="ltr" dominant-baseline="text-before-edge">Cuarta petición: Obtener fichero de configuracion.</text></g><g transform="translate(1710.1027382401003 220.77452970650484) rotate(0 231.6426239013672 48.29378437185798)"><text x="0" y="0" font-family="Virgil, Segoe UI Emoji" font-size="19.317513748743192px" fill="#000000" text-anchor="start" style="white-space: pre;" direction="ltr" dominant-baseline="text-before-edge">Se hará una request con el nombre del algoritmo</text><text x="0" y="24.14689218592899" font-family="Virgil, Segoe UI Emoji" font-size="19.317513748743192px" fill="#000000" text-anchor="start" style="white-space: pre;" direction="ltr" dominant-baseline="text-before-edge"> seleccionado y se retornará su fichero de </text><text x="0" y="48.29378437185798" font-family="Virgil, Segoe UI Emoji" font-size="19.317513748743192px" fill="#000000" text-anchor="start" style="white-space: pre;" direction="ltr" dominant-baseline="text-before-edge">configuración con json.dumps()</text><text x="0" y="72.44067655778697" font-family="Virgil, Segoe UI Emoji" font-size="19.317513748743192px" fill="#000000" text-anchor="start" style="white-space: pre;" direction="ltr" dominant-baseline="text-before-edge"></text></g><g stroke-linecap="round" transform="translate(1694.0781509944077 151.21094236161844) rotate(0 245.37580000793216 87.62407600524335)"><path d="M32 0 M32 0 C130.16 1.59, 229.59 0.22, 458.75 0 M32 0 C149.25 -1.35, 267.31 -1.4, 458.75 0 M458.75 0 C481.16 1.32, 492.25 11.36, 490.75 32 M458.75 0 C482.12 -0.27, 490.81 10.46, 490.75 32 M490.75 32 C490.28 71.31, 490.36 114.27, 490.75 143.25 M490.75 32 C489.86 61.77, 490.81 92.54, 490.75 143.25 M490.75 143.25 C488.94 163.1, 480.89 175.42, 458.75 175.25 M490.75 143.25 C492.03 163.91, 478.24 176.1, 458.75 175.25 M458.75 175.25 C347.71 173.43, 237.2 173.1, 32 175.25 M458.75 175.25 C305.58 176.1, 152.95 176.2, 32 175.25 M32 175.25 C11.16 176.25, 0.74 166.42, 0 143.25 M32 175.25 C12.26 173.77, -1.18 165.97, 0 143.25 M0 143.25 C0.75 100.14, -0.73 57.06, 0 32 M0 143.25 C1.25 110.6, 0.49 75.74, 0 32 M0 32 C-1.7 9.83, 10.73 1.42, 32 0 M0 32 C-0.93 9.95, 12.5 1.78, 32 0" stroke="#000000" stroke-width="1" fill="none"></path></g><g transform="translate(1713.8286222965253 375.5737502186348) rotate(0 237.2434539794922 37.13492399090046)"><text x="0" y="0" font-family="Virgil, Segoe UI Emoji" font-size="19.805292795146908px" fill="#000000" text-anchor="start" style="white-space: pre;" direction="ltr" dominant-baseline="text-before-edge">La validación del JSON de configuration se hará</text><text x="0" y="24.756615993933636" font-family="Virgil, Segoe UI Emoji" font-size="19.805292795146908px" fill="#000000" text-anchor="start" style="white-space: pre;" direction="ltr" dominant-baseline="text-before-edge"> con un schema con la librería jsonschema y la </text><text x="0" y="49.51323198786727" font-family="Virgil, Segoe UI Emoji" font-size="19.805292795146908px" fill="#000000" text-anchor="start" style="white-space: pre;" direction="ltr" dominant-baseline="text-before-edge">funcion validate.</text></g><g transform="translate(2408.373377204706 129.41865061286762) rotate(0 166.73208618164062 12.073446092964495)"><text x="0" y="0" font-family="Virgil, Segoe UI Emoji" font-size="19.317513748743192px" fill="#c92a2a" text-anchor="start" style="white-space: pre;" direction="ltr" dominant-baseline="text-before-edge">Quinta petición: Obtener resultado.</text></g><g stroke-linecap="round" transform="translate(2241.956416446807 113.57030073955366) rotate(0 354.0502412024757 252.58271685590017)"><path d="M32 0 M32 0 C177.79 0.43, 324.8 1.28, 676.1 0 M32 0 C175.46 0.19, 318.55 0.28, 676.1 0 M676.1 0 C698.12 1.77, 707.86 10.72, 708.1 32 M676.1 0 C697.22 1.59, 708.38 9.23, 708.1 32 M708.1 32 C706.22 150.65, 706.19 269.76, 708.1 473.17 M708.1 32 C707.65 122.86, 707.08 214.81, 708.1 473.17 M708.1 473.17 C708.27 495.61, 696.85 503.56, 676.1 505.17 M708.1 473.17 C708.95 493.56, 697.83 503.22, 676.1 505.17 M676.1 505.17 C513.63 504.47, 351.2 504.43, 32 505.17 M676.1 505.17 C538.27 503.44, 400.98 503.49, 32 505.17 M32 505.17 C12.5 506.55, -1.28 493.48, 0 473.17 M32 505.17 C12.05 507.04, 0.24 492.43, 0 473.17 M0 473.17 C0.09 321.77, -0.24 170.23, 0 32 M0 473.17 C-1.9 332.3, -1.66 192.29, 0 32 M0 32 C1.42 9.86, 10.05 1.59, 32 0 M0 32 C1.78 11.96, 9.98 0.86, 32 0" stroke="#000000" stroke-width="1" fill="none"></path></g><g stroke-linecap="round"><g transform="translate(1961.2151095957047 336.33332337960974) rotate(0 1.1690466158919293 9.876353857259641)"><path d="M-0.93 -0.29 C-0.5 3.3, 2.72 17.64, 3.27 21.24 M0.78 -1.49 C1 1.8, 1.64 16.13, 2.31 19.63" stroke="#000000" stroke-width="1" fill="none"></path></g><g transform="translate(1961.2151095957047 336.33332337960974) rotate(0 1.1690466158919293 9.876353857259641)"><path d="M-2.45 10.38 C0.2 12.91, 1.87 16.98, 3.12 20.18 M-1.75 10.35 C-0.47 13.72, 1.52 17.2, 1.99 19.48" stroke="#000000" stroke-width="1" fill="none"></path></g><g transform="translate(1961.2151095957047 336.33332337960974) rotate(0 1.1690466158919293 9.876353857259641)"><path d="M4.53 9.64 C4.71 12.37, 3.91 16.71, 3.12 20.18 M5.23 9.6 C3.96 13.27, 3.4 17.03, 1.99 19.48" stroke="#000000" stroke-width="1" fill="none"></path></g></g><mask></mask><g stroke-linecap="round"><g transform="translate(1795.6649311759443 452.53513609115544) rotate(0 0.7396950690929192 -0.490667220270268)"><path d="M-0.29 -0.03 C-0.08 -0.03, 0.75 -0.94, 0.97 -0.93 M1.76 -1.1 C1.92 -0.89, 0.69 -0.29, 0.54 0.11" stroke="#000000" stroke-width="1" fill="none"></path></g><g transform="translate(1795.6649311759443 452.53513609115544) rotate(0 0.7396950690929192 -0.490667220270268)"><path d="M0.54 0.11 C0.54 0.11, 0.54 0.11, 0.54 0.11 M0.54 0.11 C0.54 0.11, 0.54 0.11, 0.54 0.11" stroke="#000000" stroke-width="1" fill="none"></path></g><g transform="translate(1795.6649311759443 452.53513609115544) rotate(0 0.7396950690929192 -0.490667220270268)"><path d="M0.54 0.11 C0.54 0.11, 0.54 0.11, 0.54 0.11 M0.54 0.11 C0.54 0.11, 0.54 0.11, 0.54 0.11" stroke="#000000" stroke-width="1" fill="none"></path></g></g><mask></mask><g transform="translate(1881.3334269957177 430.9348020090006) rotate(0 21.446990966796875 19.53060764941202)"><text x="0" y="0" font-family="Virgil, Segoe UI Emoji" font-size="31.248972239059235px" fill="#000000" text-anchor="start" style="white-space: pre;" direction="ltr" dominant-baseline="text-before-edge">✅</text></g><g transform="translate(2140.5294085220607 114.89054951828166) rotate(0 41.8504638671875 38.10365640377248)"><text x="0" y="0" font-family="Virgil, Segoe UI Emoji" font-size="60.96585024603598px" fill="#000000" text-anchor="start" style="white-space: pre;" direction="ltr" dominant-baseline="text-before-edge">✅</text></g><g transform="translate(2266.598624230836 179.76104042765428) rotate(0 334.5097961425781 87.5)"><text x="0" y="0" font-family="Virgil, Segoe UI Emoji" font-size="20px" fill="#000000" text-anchor="start" style="white-space: pre;" direction="ltr" dominant-baseline="text-before-edge">Request:</text><text x="0" y="25" font-family="Virgil, Segoe UI Emoji" font-size="20px" fill="#000000" text-anchor="start" style="white-space: pre;" direction="ltr" dominant-baseline="text-before-edge"> body {</text><text x="0" y="50" font-family="Virgil, Segoe UI Emoji" font-size="20px" fill="#000000" text-anchor="start" style="white-space: pre;" direction="ltr" dominant-baseline="text-before-edge">        "algorithm_name" = "name"</text><text x="0" y="75" font-family="Virgil, Segoe UI Emoji" font-size="20px" fill="#000000" text-anchor="start" style="white-space: pre;" direction="ltr" dominant-baseline="text-before-edge">        "file_1" : { "filename" : "name", "file_content" : "content"},</text><text x="0" y="100" font-family="Virgil, Segoe UI Emoji" font-size="20px" fill="#000000" text-anchor="start" style="white-space: pre;" direction="ltr" dominant-baseline="text-before-edge">        ...</text><text x="0" y="125" font-family="Virgil, Segoe UI Emoji" font-size="20px" fill="#000000" text-anchor="start" style="white-space: pre;" direction="ltr" dominant-baseline="text-before-edge">        "file_{i} :   { "filename" : "name", "file_content" : "content"}</text><text x="0" y="150" font-family="Virgil, Segoe UI Emoji" font-size="20px" fill="#000000" text-anchor="start" style="white-space: pre;" direction="ltr" dominant-baseline="text-before-edge">      }</text></g><g transform="translate(2260.7121594434257 371.1814327365778) rotate(0 332.34979248046875 112.5)"><text x="0" y="0" font-family="Virgil, Segoe UI Emoji" font-size="20px" fill="#000000" text-anchor="start" style="white-space: pre;" direction="ltr" dominant-baseline="text-before-edge">Return:</text><text x="0" y="25" font-family="Virgil, Segoe UI Emoji" font-size="20px" fill="#000000" text-anchor="start" style="white-space: pre;" direction="ltr" dominant-baseline="text-before-edge">      {   </text><text x="0" y="50" font-family="Virgil, Segoe UI Emoji" font-size="20px" fill="#000000" text-anchor="start" style="white-space: pre;" direction="ltr" dominant-baseline="text-before-edge">        "file_restult_1" : { "file" : "name", "content" : "dataframe"},</text><text x="0" y="75" font-family="Virgil, Segoe UI Emoji" font-size="20px" fill="#000000" text-anchor="start" style="white-space: pre;" direction="ltr" dominant-baseline="text-before-edge">        ...</text><text x="0" y="100" font-family="Virgil, Segoe UI Emoji" font-size="20px" fill="#000000" text-anchor="start" style="white-space: pre;" direction="ltr" dominant-baseline="text-before-edge">        "file_{i} :   { "file" : "name", "content" : "dataframe"}</text><text x="0" y="125" font-family="Virgil, Segoe UI Emoji" font-size="20px" fill="#000000" text-anchor="start" style="white-space: pre;" direction="ltr" dominant-baseline="text-before-edge">      }</text><text x="0" y="150" font-family="Virgil, Segoe UI Emoji" font-size="20px" fill="#000000" text-anchor="start" style="white-space: pre;" direction="ltr" dominant-baseline="text-before-edge">No deberia ya que en el flujo original este endpoint se llamará </text><text x="0" y="175" font-family="Virgil, Segoe UI Emoji" font-size="20px" fill="#000000" text-anchor="start" style="white-space: pre;" direction="ltr" dominant-baseline="text-before-edge">despues de las comprobaciones pero haremos un try-except que en</text><text x="0" y="200" font-family="Virgil, Segoe UI Emoji" font-size="20px" fill="#000000" text-anchor="start" style="white-space: pre;" direction="ltr" dominant-baseline="text-before-edge">caso de fallar la ejecucion del algoritmo retorne un status 500.</text></g><g stroke-linecap="round"><g transform="translate(2588.8253867553735 635.4691302883784) rotate(0 -579.9466675317356 113.23240686895949)"><path d="M0.01 0.95 C-167.94 16.26, -815.36 55.41, -1008.63 92.92 C-1201.9 130.44, -1134.47 203.97, -1159.61 226.06 M-1.44 0.4 C-169.41 15.89, -816.17 53.96, -1009.24 91.22 C-1202.32 128.47, -1134.39 201.39, -1159.9 223.94" stroke="#000000" stroke-width="1" fill="none"></path></g><g transform="translate(2588.8253867553735 635.4691302883784) rotate(0 -579.9466675317356 113.23240686895949)"><path d="M-1161.97 195.24 C-1161.16 202.28, -1160.97 209.16, -1160.14 223.99 M-1164.17 193.86 C-1163.16 202.55, -1161.16 211.18, -1159.87 223.8" stroke="#000000" stroke-width="1" fill="none"></path></g><g transform="translate(2588.8253867553735 635.4691302883784) rotate(0 -579.9466675317356 113.23240686895949)"><path d="M-1141.97 199.86 C-1145.65 205.88, -1149.91 211.73, -1160.14 223.99 M-1144.18 198.48 C-1149.02 205.86, -1152.83 213.14, -1159.87 223.8" stroke="#000000" stroke-width="1" fill="none"></path></g></g><mask></mask><g transform="translate(1128.2185269758447 869.57877781059) rotate(0 327.99591064453125 22.5)"><text x="0" y="0" font-family="Virgil, Segoe UI Emoji" font-size="36px" fill="#c92a2a" text-anchor="start" style="white-space: pre;" direction="ltr" dominant-baseline="text-before-edge">Va a estar compuesto de otro flujo:</text></g><g transform="translate(886.0148020304805 961.0050257924872) rotate(0 99.35992431640625 12.5)"><text x="0" y="0" font-family="Virgil, Segoe UI Emoji" font-size="20px" fill="#000000" text-anchor="start" style="white-space: pre;" direction="ltr" dominant-baseline="text-before-edge">La idea del flujo es</text></g><g stroke-linecap="round" transform="translate(872.7810945277024 958.2154173518229) rotate(0 114.53741422280115 23.282288370136484)"><path d="M11.64 0 M11.64 0 C90.98 -0.59, 169.22 -1.42, 217.43 0 M11.64 0 C74.02 -1.82, 135.91 -2.05, 217.43 0 M217.43 0 C224.67 0.13, 228.48 3.94, 229.07 11.64 M217.43 0 C224.87 -2.14, 228.39 3.93, 229.07 11.64 M229.07 11.64 C229.67 19.75, 229.97 26.94, 229.07 34.92 M229.07 11.64 C229.33 15.92, 228.68 21.93, 229.07 34.92 M229.07 34.92 C228.18 42.17, 226.35 45.61, 217.43 46.56 M229.07 34.92 C230.29 40.7, 223.75 44.94, 217.43 46.56 M217.43 46.56 C165.23 49.12, 112.95 46.34, 11.64 46.56 M217.43 46.56 C166.31 47.26, 115.38 47.77, 11.64 46.56 M11.64 46.56 C3.27 45.3, -0.01 40.78, 0 34.92 M11.64 46.56 C3.54 46.99, 1.52 41.36, 0 34.92 M0 34.92 C0.26 31.47, -0.61 24.55, 0 11.64 M0 34.92 C-0.48 26.46, -0.04 18.06, 0 11.64 M0 11.64 C0.23 4.15, 4.78 1.65, 11.64 0 M0 11.64 C-1.84 4.27, 4.14 1.84, 11.64 0" stroke="#000000" stroke-width="1" fill="none"></path></g><g stroke-linecap="round"><g transform="translate(1103.5805539829994 987.2318741819117) rotate(0 30.016346481100072 1.1826596080594527)"><path d="M0.9 0.41 C10.81 0.5, 50.42 1.16, 60.12 1.32 M-0.08 -0.41 C9.71 -0.2, 49.99 2.27, 59.73 2.78" stroke="#000000" stroke-width="1" fill="none"></path></g><g transform="translate(1103.5805539829994 987.2318741819117) rotate(0 30.016346481100072 1.1826596080594527)"><path d="M32.13 13.06 C41.15 8.12, 51.22 6.44, 59.97 1.53 M31.5 10.99 C39.17 8.93, 45.84 6.48, 59.75 3.19" stroke="#000000" stroke-width="1" fill="none"></path></g><g transform="translate(1103.5805539829994 987.2318741819117) rotate(0 30.016346481100072 1.1826596080594527)"><path d="M33.28 -7.11 C42.03 -4.91, 51.68 0.55, 59.97 1.53 M32.65 -9.18 C39.83 -5.81, 46.19 -2.82, 59.75 3.19" stroke="#000000" stroke-width="1" fill="none"></path></g></g><mask></mask><g stroke-linecap="round" transform="translate(1173.86998012411 942.1150590823054) rotate(0 162.22173370422684 93.06028051693573)"><path d="M32 0 M32 0 C128.71 -0.91, 222.64 -0.86, 292.44 0 M32 0 C127.91 0.59, 224.09 1.35, 292.44 0 M292.44 0 C313.18 0.06, 324.16 8.81, 324.44 32 M292.44 0 C313.1 0.05, 325.39 8.58, 324.44 32 M324.44 32 C326.05 59.02, 323.33 87.94, 324.44 154.12 M324.44 32 C324.17 63.69, 324.2 95.01, 324.44 154.12 M324.44 154.12 C325.6 174.5, 314.83 184.4, 292.44 186.12 M324.44 154.12 C323 173.83, 312.78 186.69, 292.44 186.12 M292.44 186.12 C202.33 187.01, 109.19 188.99, 32 186.12 M292.44 186.12 C193.38 183.98, 93.39 183.74, 32 186.12 M32 186.12 C10.65 184.21, -0.29 175.82, 0 154.12 M32 186.12 C12.18 184.8, -2.08 173.5, 0 154.12 M0 154.12 C-0.84 121.99, 1.55 92.65, 0 32 M0 154.12 C0.5 111.42, 0.48 67.22, 0 32 M0 32 C0.89 12.32, 9.07 0.34, 32 0 M0 32 C0.25 12.51, 8.42 -1.64, 32 0" stroke="#000000" stroke-width="1" fill="none"></path></g><g transform="translate(1185.0717096223789 951.2533698831635) rotate(0 56.969947814941406 12.5)"><text x="0" y="0" font-family="Virgil, Segoe UI Emoji" font-size="20px" fill="#c92a2a" text-anchor="start" style="white-space: pre;" direction="ltr" dominant-baseline="text-before-edge">Controlador</text></g><g transform="translate(1205.7517244804685 992.2014120252097) rotate(0 124.83004760742188 44.373210668595846)"><text x="0" y="0" font-family="Virgil, Segoe UI Emoji" font-size="11.83285617829223px" fill="#000000" text-anchor="start" style="white-space: pre;" direction="ltr" dominant-baseline="text-before-edge">try:</text><text x="0" y="14.791070222865288" font-family="Virgil, Segoe UI Emoji" font-size="11.83285617829223px" fill="#000000" text-anchor="start" style="white-space: pre;" direction="ltr" dominant-baseline="text-before-edge">    files = getBody and format to json.</text><text x="0" y="29.582140445730577" font-family="Virgil, Segoe UI Emoji" font-size="11.83285617829223px" fill="#000000" text-anchor="start" style="white-space: pre;" direction="ltr" dominant-baseline="text-before-edge">    result = get_algorithm_result(files)</text><text x="0" y="44.37321066859587" font-family="Virgil, Segoe UI Emoji" font-size="11.83285617829223px" fill="#000000" text-anchor="start" style="white-space: pre;" direction="ltr" dominant-baseline="text-before-edge">    return make_response(result, 200)</text><text x="0" y="59.16428089146115" font-family="Virgil, Segoe UI Emoji" font-size="11.83285617829223px" fill="#000000" text-anchor="start" style="white-space: pre;" direction="ltr" dominant-baseline="text-before-edge">except Exception as Error:</text><text x="0" y="73.95535111432645" font-family="Virgil, Segoe UI Emoji" font-size="11.83285617829223px" fill="#000000" text-anchor="start" style="white-space: pre;" direction="ltr" dominant-baseline="text-before-edge">    return make_response(str(Error), 500)</text></g><g stroke-linecap="round"><g transform="translate(1505.7994862742135 1006.5130228493726) rotate(0 25.16254464167949 0.5305352726303454)"><path d="M0.03 -0.11 C8.48 0.02, 43.38 0.62, 51.74 0.66 M-1.41 -1.21 C6.86 -0.85, 42.21 1.86, 51.22 2.27" stroke="#000000" stroke-width="1" fill="none"></path></g><g transform="translate(1505.7994862742135 1006.5130228493726) rotate(0 25.16254464167949 0.5305352726303454)"><path d="M26.62 10.84 C36.54 5.41, 45.17 2.11, 50.7 2.4 M25.88 9.16 C33.43 7.96, 39.1 4.87, 51.63 2.36" stroke="#000000" stroke-width="1" fill="none"></path></g><g transform="translate(1505.7994862742135 1006.5130228493726) rotate(0 25.16254464167949 0.5305352726303454)"><path d="M27.72 -6.53 C37.19 -5.22, 45.39 -1.78, 50.7 2.4 M26.97 -8.21 C34.23 -4.72, 39.6 -3.12, 51.63 2.36" stroke="#000000" stroke-width="1" fill="none"></path></g></g><mask></mask><g stroke-linecap="round" transform="translate(1567.7967700616286 938.3536056175785) rotate(0 189.34601345412372 93.06028051693573)"><path d="M32 0 M32 0 C123.64 0.37, 212.44 -0.23, 346.69 0 M32 0 C98.42 -0.12, 165.16 -0.8, 346.69 0 M346.69 0 C367.43 0.05, 379.51 8.85, 378.69 32 M346.69 0 C366.32 0.93, 378.89 11.94, 378.69 32 M378.69 32 C376.89 65.43, 376.03 97.2, 378.69 154.12 M378.69 32 C378.72 68.83, 378.67 105.76, 378.69 154.12 M378.69 154.12 C377.43 174.04, 367.16 186.62, 346.69 186.12 M378.69 154.12 C379.85 176.3, 370.14 187.72, 346.69 186.12 M346.69 186.12 C273.64 187.62, 197 188.08, 32 186.12 M346.69 186.12 C262.52 184.03, 178.25 184.84, 32 186.12 M32 186.12 C11.98 184.97, -1.81 173.76, 0 154.12 M32 186.12 C9.7 186.19, 1.63 174.53, 0 154.12 M0 154.12 C0.15 120.67, -0.23 88.7, 0 32 M0 154.12 C0.31 108.39, -0.94 61.17, 0 32 M0 32 C0.22 12.27, 8.71 -1.43, 32 0 M0 32 C0.76 12.19, 9.32 -2.27, 32 0" stroke="#000000" stroke-width="1" fill="none"></path></g><g transform="translate(1578.998499559897 947.4919164184371) rotate(0 61.88994598388672 12.5)"><text x="0" y="0" font-family="Virgil, Segoe UI Emoji" font-size="20px" fill="#c92a2a" text-anchor="start" style="white-space: pre;" direction="ltr" dominant-baseline="text-before-edge">Caso de uso</text></g><g transform="translate(1600.6028587550122 977.0262962353377) rotate(0 164.43170166015625 64.86414237216036)"><text x="0" y="0" font-family="Virgil, Segoe UI Emoji" font-size="10.378262779545658px" fill="#000000" text-anchor="start" style="white-space: pre;" direction="ltr" dominant-baseline="text-before-edge">try:</text><text x="0" y="12.972828474432072" font-family="Virgil, Segoe UI Emoji" font-size="10.378262779545658px" fill="#000000" text-anchor="start" style="white-space: pre;" direction="ltr" dominant-baseline="text-before-edge">    algorithm_name = files.pop("algorithm_name")</text><text x="0" y="25.945656948864144" font-family="Virgil, Segoe UI Emoji" font-size="10.378262779545658px" fill="#000000" text-anchor="start" style="white-space: pre;" direction="ltr" dominant-baseline="text-before-edge">    files_in_dataframes = process_files(files)</text><text x="0" y="38.91848542329622" font-family="Virgil, Segoe UI Emoji" font-size="10.378262779545658px" fill="#000000" text-anchor="start" style="white-space: pre;" direction="ltr" dominant-baseline="text-before-edge">    algorithm = new Algorithm(algorithm_name["algorithm_name"])</text><text x="0" y="51.89131389772829" font-family="Virgil, Segoe UI Emoji" font-size="10.378262779545658px" fill="#000000" text-anchor="start" style="white-space: pre;" direction="ltr" dominant-baseline="text-before-edge"></text><text x="0" y="64.86414237216036" font-family="Virgil, Segoe UI Emoji" font-size="10.378262779545658px" fill="#000000" text-anchor="start" style="white-space: pre;" direction="ltr" dominant-baseline="text-before-edge">    result = Algorithm.start(files_in_dataframe)</text><text x="0" y="77.83697084659244" font-family="Virgil, Segoe UI Emoji" font-size="10.378262779545658px" fill="#000000" text-anchor="start" style="white-space: pre;" direction="ltr" dominant-baseline="text-before-edge"></text><text x="0" y="90.8097993210245" font-family="Virgil, Segoe UI Emoji" font-size="10.378262779545658px" fill="#000000" text-anchor="start" style="white-space: pre;" direction="ltr" dominant-baseline="text-before-edge">    return result</text><text x="0" y="103.78262779545658" font-family="Virgil, Segoe UI Emoji" font-size="10.378262779545658px" fill="#000000" text-anchor="start" style="white-space: pre;" direction="ltr" dominant-baseline="text-before-edge">except Exception as Error:</text><text x="0" y="116.75545626988865" font-family="Virgil, Segoe UI Emoji" font-size="10.378262779545658px" fill="#000000" text-anchor="start" style="white-space: pre;" direction="ltr" dominant-baseline="text-before-edge">    raise Exception(srt(Error))</text></g><g transform="translate(1722.8878845110944 955.6360003759614) rotate(0 74.45884704589844 11.48137429760527)"><text x="0" y="0" font-family="Virgil, Segoe UI Emoji" font-size="9.18509943808423px" fill="#000000" text-anchor="start" style="white-space: pre;" direction="ltr" dominant-baseline="text-before-edge">Se llamaran otros casos de uso.</text><text x="0" y="11.481374297605287" font-family="Virgil, Segoe UI Emoji" font-size="9.18509943808423px" fill="#000000" text-anchor="start" style="white-space: pre;" direction="ltr" dominant-baseline="text-before-edge"></text></g><g stroke-linecap="round" transform="translate(1604.0200618944727 1040.1870962153225) rotate(0 141.18119468994792 8.998801555748514)"><path d="M4.5 0 M4.5 0 C88.46 0.23, 175.26 0.18, 277.86 0 M4.5 0 C87.13 2, 170.54 1.27, 277.86 0 M277.86 0 C279.38 0.81, 282.54 2.61, 282.36 4.5 M277.86 0 C280.19 -1.84, 283.21 0.56, 282.36 4.5 M282.36 4.5 C282.34 6.95, 282.05 10.73, 282.36 13.5 M282.36 4.5 C282.13 6.45, 282.22 9.15, 282.36 13.5 M282.36 13.5 C283.37 17.24, 282.7 19.39, 277.86 18 M282.36 13.5 C280.89 15.32, 282.25 19.88, 277.86 18 M277.86 18 C192.46 18.44, 107.08 18.91, 4.5 18 M277.86 18 C222.45 17.94, 165.31 17.73, 4.5 18 M4.5 18 C0.66 18.06, 1.42 15.69, 0 13.5 M4.5 18 C0.79 19.83, 1.78 17.79, 0 13.5 M0 13.5 C0.7 11.17, 0.09 9.04, 0 4.5 M0 13.5 C0.12 10.42, -0.37 6.29, 0 4.5 M0 4.5 C0.66 2.82, 0.33 -1.97, 4.5 0 M0 4.5 C-2.11 1.59, 1.51 -0.92, 4.5 0" stroke="#087f5b" stroke-width="1" fill="none"></path></g><g stroke-linecap="round"><g transform="translate(1889.9577294578812 1048.5773066696374) rotate(0 -93.3201135690454 90.86271612002537)"><path d="M-1.06 -0.32 C-31.51 26.15, -165.1 128.03, -183.46 158.42 C-201.82 188.81, -123.05 178.12, -111.2 182.03 M0.59 -1.53 C-29.95 25.14, -165.61 128.97, -184.37 159.77 C-203.12 190.57, -123.89 179.42, -111.95 183.26" stroke="#087f5b" stroke-width="1" fill="none"></path></g><g transform="translate(1889.9577294578812 1048.5773066696374) rotate(0 -93.3201135690454 90.86271612002537)"><path d="M-141.04 192.55 C-134.29 190.56, -127.19 186.46, -112.54 183.3 M-140.11 192.51 C-130.13 189.22, -121.75 186.75, -112.36 183.43" stroke="#087f5b" stroke-width="1" fill="none"></path></g><g transform="translate(1889.9577294578812 1048.5773066696374) rotate(0 -93.3201135690454 90.86271612002537)"><path d="M-140.25 172.04 C-133.75 174.92, -126.84 175.69, -112.54 183.3 M-139.32 172 C-129.8 175.7, -121.68 180.22, -112.36 183.43" stroke="#087f5b" stroke-width="1" fill="none"></path></g></g><mask></mask><g transform="translate(1766.0214801509087 1164.3832071352426) rotate(0 263.8293762207031 66.17857600872378)"><text x="0" y="0" font-family="Virgil, Segoe UI Emoji" font-size="11.765080179328672px" fill="#000000" text-anchor="start" style="white-space: pre;" direction="ltr" dominant-baseline="text-before-edge">    Esta función debe devolver la estructura mencionada en el Return anterior</text><text x="0" y="14.70635022416084" font-family="Virgil, Segoe UI Emoji" font-size="11.765080179328672px" fill="#000000" text-anchor="start" style="white-space: pre;" direction="ltr" dominant-baseline="text-before-edge">    Para que esto sea factible cada algoritmo construirá su respuesta en su función.</text><text x="0" y="29.41270044832168" font-family="Virgil, Segoe UI Emoji" font-size="11.765080179328672px" fill="#000000" text-anchor="start" style="white-space: pre;" direction="ltr" dominant-baseline="text-before-edge">    Ejemplo de drivers:</text><text x="0" y="44.119050672482516" font-family="Virgil, Segoe UI Emoji" font-size="11.765080179328672px" fill="#000000" text-anchor="start" style="white-space: pre;" direction="ltr" dominant-baseline="text-before-edge">        def algorithm(files) -&gt; Este files es la estructura inicial file { name, dataframe }</text><text x="0" y="58.82540089664336" font-family="Virgil, Segoe UI Emoji" font-size="11.765080179328672px" fill="#000000" text-anchor="start" style="white-space: pre;" direction="ltr" dominant-baseline="text-before-edge">            Solo tenemos un file asi que para trabar con su dataframe haremos un:</text><text x="0" y="73.5317511208042" font-family="Virgil, Segoe UI Emoji" font-size="11.765080179328672px" fill="#000000" text-anchor="start" style="white-space: pre;" direction="ltr" dominant-baseline="text-before-edge">            file_dataframe = file["file_1"]["file_content"]</text><text x="0" y="88.23810134496503" font-family="Virgil, Segoe UI Emoji" font-size="11.765080179328672px" fill="#000000" text-anchor="start" style="white-space: pre;" direction="ltr" dominant-baseline="text-before-edge">            Trabajamos sobre este y luego creamos un json nosotros tal que:</text><text x="0" y="102.94445156912587" font-family="Virgil, Segoe UI Emoji" font-size="11.765080179328672px" fill="#000000" text-anchor="start" style="white-space: pre;" direction="ltr" dominant-baseline="text-before-edge">            file_1 { name: file["file_1"]["filename"], content: sorted_file }</text><text x="0" y="117.65080179328672" font-family="Virgil, Segoe UI Emoji" font-size="11.765080179328672px" fill="#000000" text-anchor="start" style="white-space: pre;" direction="ltr" dominant-baseline="text-before-edge">            file_2 { name: "nuevo fichero generado", content: horario_conductores}</text></g><g stroke-linecap="round" transform="translate(1783.1709188482273 1155.53131514499) rotate(0 260.27481225705924 74.61867063792272)"><path d="M32 0 M32 0 C128.39 -0.11, 225.2 -1.02, 488.55 0 M32 0 C155.03 -1.23, 279.11 -0.84, 488.55 0 M488.55 0 C510.99 -0.58, 518.95 11.41, 520.55 32 M488.55 0 C508.94 0.4, 518.61 9.56, 520.55 32 M520.55 32 C521.32 57.09, 521.22 82.36, 520.55 117.24 M520.55 32 C520.19 52.72, 520.32 73.34, 520.55 117.24 M520.55 117.24 C521.94 137.29, 508.86 150.44, 488.55 149.24 M520.55 117.24 C522.43 138.81, 507.81 150.23, 488.55 149.24 M488.55 149.24 C366.43 146.97, 244.18 148.05, 32 149.24 M488.55 149.24 C321.09 147.09, 154.45 147.62, 32 149.24 M32 149.24 C9.86 148.62, 1.59 140.12, 0 117.24 M32 149.24 C11.96 148.55, 0.86 138.9, 0 117.24 M0 117.24 C0.8 86.39, -1.69 52.58, 0 32 M0 117.24 C-1.4 91.05, -0.02 63.62, 0 32 M0 32 C-1.97 8.83, 10.74 0, 32 0 M0 32 C-0.92 8.68, 11.34 0.43, 32 0" stroke="#000000" stroke-width="1" fill="none"></path></g></svg>